<svg xmlns="http://www.w3.org/2000/svg" version="1.1" xmlns:xlink="http://www.w3.org/1999/xlink" xmlns:svgjs="http://svgjs.dev/svgjs" viewBox="0 0 1920 1080"><rect width="1920" height="1080" fill="#9e99ff"></rect><g transform="matrix(0.8131727983645296,0.8131727983645295,-0.8131727983645295,0.8131727983645296,617.4348709305777,-675.2649664062635)"><path d="M0,-1080C1.244470350465657,-951.2997801246138,9.066604825282672,-578.9042126580578,7.466822102793941,-307.79868074768274C5.8670393803052105,-36.69314883730766,-16.949714413641942,272.81352320003765,-9.598696334932384,546.6331914622507C-2.2476782562228266,820.4528597244637,49.973147852562555,1066.2248607359704,51.57293057505129,1335.1193288255954C53.17271329754002,1604.0137969152204,8.595488429175214,2022.5198881375993,0,2160L 1920 2160 L 1920 -1080 Z" fill="url(&quot;#SvgjsLinearGradient1504&quot;)"></path><path d="M320,-1080C326.7921143983584,-1000.1583492940807,357.5550269797361,-763.102173181676,360.75268639015064,-600.9500957644841C363.9503458005652,-438.7980183472922,344.19529262387687,-267.4248545573746,339.18595646248735,-107.08753549684837C334.17662030109784,53.24978356367788,326.7352695307012,215.8555444536854,330.69666942181345,361.0738185986735C334.6580693129257,506.29209274366156,372.1052764530646,614.4500332378061,362.9543558091607,764.22210937308C353.80343516525676,913.9941855083539,290.1973648546403,1114.8575974994867,275.79114555838976,1259.706275410317C261.38492626213923,1404.5549533211472,269.1488976247226,1483.265222739781,276.51704003165764,1633.3141768380615C283.88518243859266,1783.363130936342,312.75284000527625,2072.2190294730103,320,2160L 1920 2160 L 1920 -1080 Z" fill="url(&quot;#SvgjsLinearGradient1505&quot;)"></path><path d="M640,-1080C634.8250036805359,-995.0267832681013,616.0191465297588,-754.5406888753712,608.9500220832159,-570.160699608608C601.880897636673,-385.7807103418447,584.6820331698225,-163.2453061899424,597.5852533207425,26.279935600579165C610.4884734716625,215.80517739110073,670.4500509154507,383.1907865293674,686.3693429887358,566.9907511345215C702.2886350620208,750.7907157396755,702.2393110672868,942.9561255648395,693.1010057604533,1129.0797232315035C683.9627004536197,1315.2033208981677,640.3896787744764,1511.9122910064234,631.5395111477342,1683.7323371345062C622.689343520992,1855.552383262589,638.5899185246224,2080.6220561890846,640,2160L 1920 2160 L 1920 -1080 Z" fill="url(&quot;#SvgjsLinearGradient1506&quot;)"></path><path d="M960,-1080C957.8661829110526,-990.5335174747192,957.8100121939748,-728.0371434696268,947.1970974663159,-543.2011048483151C936.584182738657,-358.36506622700347,889.1629401839116,-158.7380392663913,896.3225116340464,29.016231727869837C903.4820830841811,216.77050272213097,985.6557335492479,406.4040405294652,990.1545261671242,583.3245211172517C994.6533187850006,760.2450017050382,930.8039790671168,912.8915589876356,923.3152673413044,1090.539115254589C915.8265556154921,1268.1866715215424,939.1081337024679,1470.9663779280704,945.2222558122504,1649.2098587189723C951.336377922033,1827.4533395098742,957.5370426353751,2074.8683097864955,960,2160L 1920 2160 L 1920 -1080 Z" fill="url(&quot;#SvgjsLinearGradient1507&quot;)"></path><path d="M1280,-1080C1282.8732693436282,-1010.6339366225008,1300.4295476785835,-821.3646123937458,1297.2396160617698,-663.8036197350048C1294.049684444956,-506.2426270762637,1267.5302172355841,-301.10811789713557,1260.8604102991171,-134.6340440475538C1254.19060336265,31.840029802027942,1256.1872161618733,186.2218401977668,1257.220774442967,335.04082336248575C1258.2543327240608,483.8598065272047,1265.394740525561,614.1959255094432,1267.0617599856794,758.2798549407601C1268.7287794457977,902.3637843720769,1272.2584697262996,1041.5517617652295,1267.2228912036767,1199.5443999503866C1262.1873126810538,1357.5370381355438,1234.7187707172216,1546.1597507101,1236.848288849942,1706.2356840517023C1238.9778069826625,1866.3116173933045,1272.808048141657,2084.372614008617,1280,2160L 1920 2160 L 1920 -1080 Z" fill="url(&quot;#SvgjsLinearGradient1508&quot;)"></path><path d="M1600,-1080C1598.8935295665642,-1009.8523533931382,1587.566420421082,-797.4182559785909,1593.3611773993846,-659.1141203588293C1599.1559343776871,-520.8099847390677,1636.9165213317556,-387.9675554483175,1634.7685418698156,-250.17518628143014C1632.6205624078757,-112.38281711454277,1586.6338110762779,36.123216424139656,1580.4733006277447,167.64009464249492C1574.3127901792116,299.15697286085015,1587.3112166770522,412.4115370100035,1597.8054791786171,538.9260830287014C1608.299741680182,665.4406290473994,1644.0076467689385,794.9336830747477,1643.4388756371343,926.7273707546826C1642.8701045053301,1058.5210584346175,1610.9442133470175,1187.9281536911765,1594.3928523877917,1329.688209108311C1577.8414914285659,1471.4482645254454,1543.1961852797454,1638.9024047755413,1544.1307098817801,1777.2877032574895C1545.065234483815,1915.6730017394377,1590.6884516469634,2096.214617209582,1600,2160L 1920 2160 L 1920 -1080 Z" fill="url(&quot;#SvgjsLinearGradient1509&quot;)"></path></g><defs><linearGradient x1="0.1" y1="0" x2="0" y2="1" id="SvgjsLinearGradient1504"><stop stop-color="#9e99ff" offset="0"></stop><stop stop-color="#99a5ff" offset="0"></stop></linearGradient><linearGradient x1="0.1" y1="0" x2="0" y2="1" id="SvgjsLinearGradient1505"><stop stop-color="#bab7ff" offset="0"></stop><stop stop-color="#b7c0ff" offset="0.16666666666666666"></stop></linearGradient><linearGradient x1="0.1" y1="0" x2="0" y2="1" id="SvgjsLinearGradient1506"><stop stop-color="#d6d4ff" offset="0"></stop><stop stop-color="#d4d9ff" offset="0.3333333333333333"></stop></linearGradient><linearGradient x1="0.1" y1="0" x2="0" y2="1" id="SvgjsLinearGradient1507"><stop stop-color="#f2f2ff" offset="0"></stop><stop stop-color="#f2f4ff" offset="0.5"></stop></linearGradient><linearGradient x1="0.1" y1="0" x2="0" y2="1" id="SvgjsLinearGradient1508"><stop stop-color="#ffffff" offset="0"></stop><stop stop-color="#ffffff" offset="0.6666666666666666"></stop></linearGradient><linearGradient x1="0.1" y1="0" x2="0" y2="1" id="SvgjsLinearGradient1509"><stop stop-color="#ffffff" offset="0"></stop><stop stop-color="#ffffff" offset="0.8333333333333334"></stop></linearGradient></defs></svg>